<?xml version="1.0" encoding="utf-8"?>
<!-- Generator: Adobe Illustrator 16.0.0, SVG Export Plug-In . SVG Version: 6.00 Build 0)  -->
<!DOCTYPE svg PUBLIC "-//W3C//DTD SVG 1.1//EN" "http://www.w3.org/Graphics/SVG/1.1/DTD/svg11.dtd">
<svg version="1.1" id="Layer_1" xmlns="http://www.w3.org/2000/svg" xmlns:xlink="http://www.w3.org/1999/xlink" x="0px" y="0px"
	 width="144px" height="144px" viewBox="0 0 144 144" style="enable-background:new 0 0 144 144;" xml:space="preserve">
<style type="text/css">
<![CDATA[
	.st0{fill:#A3977F;}
]]>
</style>
<g>
	<g>
		<path class="st0" d="M87.3,36.5c15.1-4.5,29.8,1.5,37.1,15.5c1.4,2.6,5.2,0.3,3.9-2.3c-8.2-15.6-25.3-22.6-42.2-17.5
			C83.4,33,84.5,37.3,87.3,36.5L87.3,36.5z"/>
	</g>
	<g>
		<path class="st0" d="M122.1,56c7.1-1.5,18.7,1.3,16.4,10.9c-0.7,2.8,3.6,4,4.3,1.2c1.3-5.3-0.8-10.7-5.1-13.9
			c-4.8-3.6-11.1-3.7-16.7-2.5C118.1,52.3,119.3,56.6,122.1,56L122.1,56z"/>
	</g>
	<g>
		<path class="st0" d="M104.9,48.5c-3.6,4.1-5.8,15.3,1.7,16.8c2.8,0.6,4-3.8,1.2-4.3c-1.5-0.3-1.7-2.3-1.8-3.6
			c-0.1-2.1,0.6-4,2-5.7C110,49.5,106.8,46.3,104.9,48.5L104.9,48.5z"/>
	</g>
	<g>
		<path class="st0" d="M87.3,63.4c11.4,7.7,22.4-0.7,34.6,0c11.5,0.7,19.8,11.1,16,22.6c-4.3,13-22.8,13.9-32.8,9.6
			c-2.6-1.1-4.9,2.7-2.3,3.9c16.5,7,41.5,0.5,40.2-21c-0.5-7.8-4.3-14.2-11.6-17.5c-13.7-6.3-29.5,6.8-41.8-1.5
			C87.2,57.9,84.9,61.8,87.3,63.4L87.3,63.4z"/>
	</g>
	<g>
		<path class="st0" d="M114.4,99.2c-2.9,2.2-4.7,5.4-8.2,6.9c-3.5,1.5-6.8,1.7-10.6,1.4c-2.9-0.3-2.9,4.2,0,4.5
			c4.1,0.4,7.7,0,11.5-1.4c4.2-1.6,6.1-4.9,9.5-7.4C119,101.4,116.7,97.5,114.4,99.2L114.4,99.2z"/>
	</g>
	<g>
		<path class="st0" d="M94.4,95.9c-3.6,4.3-6,10.1-1.2,14.6c5,4.7,12.3,6.8,19,7c2.9,0.1,2.9-4.4,0-4.5c-4.3-0.1-8.4-1.1-12.2-3.2
			c-1.7-0.9-4.3-2.3-4.9-4.3c-0.8-2.4,1.1-4.8,2.5-6.5C99.4,96.9,96.2,93.7,94.4,95.9L94.4,95.9z"/>
	</g>
	<g>
		<path class="st0" d="M105.9,121.2c-5.9-1.4-12-3.2-17.5-6.1c-5.9-3.1-9-7.5-12.2-13.2c-1.4-2.5-5.3-0.3-3.9,2.3
			c3.1,5.5,6.3,10.5,11.9,13.8c6.2,3.7,13.5,5.9,20.5,7.6C107.6,126.2,108.8,121.9,105.9,121.2L105.9,121.2z"/>
	</g>
	<g>
		<path class="st0" d="M116,71.4c-3.4,6.7-1.5,14.2,4.7,18.4c2.4,1.6,4.6-2.3,2.3-3.9c-4.1-2.8-5.3-7.8-3.1-12.2
			C121.2,71.1,117.3,68.8,116,71.4L116,71.4z"/>
	</g>
	<g>
		<path class="st0" d="M116,79.6c-13.7,0.4-19.3,8.5-30.8,14.5c-12,6.3-32.6,7.9-36.2-9.4C45.6,68.2,64.5,63.2,76.9,64
			c-0.2-1.5-0.4-2.9-0.6-4.4c-0.4,0.1-0.9,0.1-1.3,0.2c-2.8,0.5-1.6,4.8,1.2,4.3c0.4-0.1,0.9-0.1,1.3-0.2c2.6-0.4,1.8-4.3-0.6-4.4
			C59,58.3,33.1,72,47.2,92.9c5.4,8,15.4,11.5,24.8,10.5c17-1.8,27.1-18.8,44.1-19.2C118.9,84.1,118.9,79.6,116,79.6L116,79.6z"/>
	</g>
	<g>
		<path class="st0" d="M61.8,51c-1.8,4.3-1.4,8.8,0.7,12.8c1.3,2.6,5.2,0.3,3.9-2.3c-1.6-3-1.6-6.2-0.3-9.4
			C67.2,49.6,62.9,48.4,61.8,51L61.8,51z"/>
	</g>
	<g>
		<path class="st0" d="M54.3,48.4c3.8-2.8,7.9-5.8,13-4.3c5.2,1.5,8.5,6.3,11.3,10.6c1.6,2.4,5.5,0.2,3.9-2.3
			c-3.5-5.3-7.6-10.8-14-12.6c-6.3-1.8-11.5,1.2-16.4,4.8C49.8,46.2,52,50.1,54.3,48.4L54.3,48.4z"/>
	</g>
	<g>
		<path class="st0" d="M88.1,38.5C82.4,39.8,78,44.2,76.6,50c-0.7,2.8,3.7,4,4.3,1.2c1-4.3,4.1-7.3,8.4-8.4
			C92.1,42.1,90.9,37.8,88.1,38.5L88.1,38.5z"/>
	</g>
	<g>
		<path class="st0" d="M52.6,36.5c0.1,0.7,0.2,1.4,0.5,2.1c0.6,1.8,1.7,3.2,2.4,4.9c1.1,2.6,5.5,1.5,4.3-1.2c-0.7-1.6-1.7-3-2.3-4.7
			c-0.6-1.7,0-3.6-0.7-5.1c-0.3-0.8-1.1-1.8-2.2-1.6c-0.1,0-0.1,0-0.2,0C51.7,31.2,52.6,35.9,52.6,36.5z"/>
	</g>
	<g>
		<path class="st0" d="M41.3,44.2c-3.3,3.4-2.4,8.5,0.3,12c3.2,4.2,8.5,5.6,13.5,4.3c2.8-0.7,1.6-5.1-1.2-4.3c-3,0.8-6,0.2-8.2-2.1
			c-1.6-1.6-3.2-4.8-1.3-6.8C46.5,45.3,43.3,42.1,41.3,44.2L41.3,44.2z"/>
	</g>
	<g>
		<path class="st0" d="M39.9,53.8c-9.3,5.6-14.5,16.1-13.1,26.9c0.4,2.8,4.9,2.9,4.5,0c-1.2-9.3,2.9-18.2,10.9-23
			C44.6,56.1,42.4,52.3,39.9,53.8L39.9,53.8z"/>
	</g>
	<g>
		<path class="st0" d="M29.2,68.1c-2.6-0.5-6.1,0.6-7.8-1.8c-1.2-1.7-0.4-5-2.7-5.1c-4.6-0.1-1.6,7.6,0.6,9.4
			c2.7,2.2,5.5,1.2,8.7,1.8C30.9,72.9,32.1,68.6,29.2,68.1L29.2,68.1z"/>
	</g>
	<g>
		<path class="st0" d="M49.3,89.9C34.5,91.8,11,97,6,77.6C1.2,58.9,19.3,43.2,36.5,42.9c2.9-0.1,2.9-4.5,0-4.5
			C17.4,38.8-1.1,54.7,1,74.9c2.7,25.8,29.6,21.9,48.3,19.4C52.1,94,52.2,89.5,49.3,89.9L49.3,89.9z"/>
	</g>
	<g>
		<path class="st0" d="M83.6,70c0.1-0.1,0.3-0.2,0.4-0.2c-0.9-1.2-1.8-2.4-2.7-3.5c-3.1,2.7-3.8,7.4-1.2,10.8c2.7,3.5,8.4,5,12.7,5
			c2.9,0,2.9-4.5,0-4.5c-3.5,0-13.9-3.2-8.2-8.2c2-1.7-0.5-4.7-2.7-3.5c-0.1,0.1-0.3,0.2-0.4,0.2C78.8,67.5,81,71.4,83.6,70L83.6,70
			z"/>
	</g>
	<g>
		<path class="st0" d="M78.7,73.3c-7.8,1.5-16.3,3.9-19.8,11.8c-1.1,2.6,2.7,4.9,3.9,2.3c3-6.9,10.4-8.5,17.1-9.8
			C82.8,77.1,81.6,72.8,78.7,73.3L78.7,73.3z"/>
	</g>
	<g>
		<path class="st0" d="M33.5,40c2-6.5,5.4-12,11.7-15.1c7.9-3.9,17.4-1.6,21,7c1.1,2.6,5.4,1.5,4.3-1.2
			c-3.6-8.6-11.7-13.5-21.1-11.9c-10.5,1.7-17.3,10.3-20.2,20C28.3,41.6,32.6,42.7,33.5,40L33.5,40z"/>
	</g>
	<g>
		<path class="st0" d="M64.1,24.7C75.3,20.9,87,23.6,95.4,32c2,2.1,5.2-1.1,3.2-3.2c-9.4-9.4-23-12.7-35.6-8.4
			C60.2,21.3,61.4,25.6,64.1,24.7L64.1,24.7z"/>
	</g>
</g>
</svg>
