<?xml version="1.0" encoding="utf-8"?>
<!-- Generator: Adobe Illustrator 16.0.0, SVG Export Plug-In . SVG Version: 6.00 Build 0)  -->
<!DOCTYPE svg PUBLIC "-//W3C//DTD SVG 1.1//EN" "http://www.w3.org/Graphics/SVG/1.1/DTD/svg11.dtd">
<svg version="1.1" id="Layer_1" xmlns="http://www.w3.org/2000/svg" xmlns:xlink="http://www.w3.org/1999/xlink" x="0px" y="0px"
	 width="144px" height="144px" viewBox="0 0 144 144" style="enable-background:new 0 0 144 144;" xml:space="preserve">
<style type="text/css">
<![CDATA[
	.st0{fill:#A3977F;}
]]>
</style>
<path class="st0" d="M131,21.6H12.7c-6.4,0-11.6,5.2-11.6,11.6v77.5c0,6.4,5.2,11.6,11.6,11.6H131c6.4,0,11.6-5.2,11.6-11.6V33.2
	C142.6,26.9,137.4,21.6,131,21.6z M40.3,115.2h-9.9c-1.8,0-3.3-1.5-3.3-3.3c0-1.8,1.5-3.3,3.3-3.3h9.9c1.8,0,3.3,1.5,3.3,3.3
	C43.6,113.8,42.1,115.2,40.3,115.2z M47.6,102.7H26.5c-1.8,0-3.3-1.5-3.3-3.3c0-1.8,1.5-3.3,3.3-3.3h21.1c1.8,0,3.3,1.5,3.3,3.3
	C50.9,101.2,49.4,102.7,47.6,102.7z M61.3,91H22.4c-1.8,0-3.3-1.5-3.3-3.3c0-1.8,1.5-3.3,3.3-3.3h38.9c1.8,0,3.3,1.5,3.3,3.3
	C64.6,89.5,63.1,91,61.3,91z M113,115.2h-9.9c-1.8,0-3.3-1.5-3.3-3.3c0-1.8,1.5-3.3,3.3-3.3h9.9c1.8,0,3.3,1.5,3.3,3.3
	C116.3,113.8,114.8,115.2,113,115.2z M117.2,102.7H96.2c-1.8,0-3.3-1.5-3.3-3.3c0-1.8,1.5-3.3,3.3-3.3h21.1c1.8,0,3.3,1.5,3.3,3.3
	C120.5,101.2,119.1,102.7,117.2,102.7z M121.4,91H82.5c-1.8,0-3.3-1.5-3.3-3.3c0-1.8,1.5-3.3,3.3-3.3h38.9c1.8,0,3.3,1.5,3.3,3.3
	C124.7,89.5,123.2,91,121.4,91z M122.8,78.7H75.2v4.7c0,1.8-1.5,3.3-3.3,3.3c-1.8,0-3.3-1.5-3.3-3.3v-4.7H20.9
	c-1.8,0-3.3-1.5-3.3-3.3c0-1.8,1.5-3.3,3.3-3.3h47.7v-5.3H22.9c-1.8,0-3.3-1.5-3.3-3.3s1.5-3.3,3.3-3.3h45.7v-5.4H28.4
	c-1.8,0-3.3-1.5-3.3-3.3c0-1.8,1.5-3.3,3.3-3.3h40.2V42H38.9c-1.8,0-3.3-1.5-3.3-3.3c0-1.8,1.5-3.3,3.3-3.3h29.7V31
	c0-1.8,1.5-3.3,3.3-3.3c1.8,0,3.3,1.5,3.3,3.3v4.4h29.7c1.8,0,3.3,1.5,3.3,3.3c0,1.8-1.5,3.3-3.3,3.3H75.2v6.3h40.2
	c1.8,0,3.3,1.5,3.3,3.3c0,1.8-1.5,3.3-3.3,3.3H75.2v5.4h45.7c1.8,0,3.3,1.5,3.3,3.3s-1.5,3.3-3.3,3.3H75.2v5.3h47.7
	c1.8,0,3.3,1.5,3.3,3.3C126.1,77.3,124.7,78.7,122.8,78.7z"/>
</svg>
