<?xml version="1.0" encoding="utf-8"?>
<!-- Generator: Adobe Illustrator 16.0.0, SVG Export Plug-In . SVG Version: 6.00 Build 0)  -->
<!DOCTYPE svg PUBLIC "-//W3C//DTD SVG 1.1//EN" "http://www.w3.org/Graphics/SVG/1.1/DTD/svg11.dtd">
<svg version="1.1" id="Layer_1" xmlns="http://www.w3.org/2000/svg" xmlns:xlink="http://www.w3.org/1999/xlink" x="0px" y="0px"
	 width="144px" height="144px" viewBox="0 0 144 144" style="enable-background:new 0 0 144 144;" xml:space="preserve">
<style type="text/css">
<![CDATA[
	.st0{fill:#A3977F;}
]]>
</style>
<g>
	<g>
		<path class="st0" d="M78.5,137H67.9c-1.1,0-2.1-0.9-2.1-2.1c0-1.1,0.9-2.1,2.1-2.1h10.6c1.1,0,2.1,0.9,2.1,2.1
			C80.6,136.1,79.7,137,78.5,137z"/>
	</g>
	<g>
		<path class="st0" d="M72.5,143.6h-8c-1.1,0-2.1-0.9-2.1-2.1c0-1.1,0.9-2.1,2.1-2.1h8c1.1,0,2.1,0.9,2.1,2.1
			C74.6,142.7,73.7,143.6,72.5,143.6z"/>
	</g>
	<g>
		<path class="st0" d="M80.8,130.4H69c-1.1,0-2.1-0.9-2.1-2.1c0-1.1,0.9-2.1,2.1-2.1h11.8c1.1,0,2.1,0.9,2.1,2.1
			C82.9,129.5,82,130.4,80.8,130.4z"/>
	</g>
	<g>
		<path class="st0" d="M83,123.8H71.2c-1.1,0-2.1-0.9-2.1-2.1s0.9-2.1,2.1-2.1H83c1.1,0,2.1,0.9,2.1,2.1S84.2,123.8,83,123.8z"/>
	</g>
	<g>
		<path class="st0" d="M85.6,117.1H73.8c-1.1,0-2.1-0.9-2.1-2.1s0.9-2.1,2.1-2.1h11.8c1.1,0,2.1,0.9,2.1,2.1S86.8,117.1,85.6,117.1z
			"/>
	</g>
	<g>
		<path class="st0" d="M86.7,110.5H74.9c-1.1,0-2.1-0.9-2.1-2.1c0-1.1,0.9-2.1,2.1-2.1h11.8c1.1,0,2.1,0.9,2.1,2.1
			C88.8,109.6,87.9,110.5,86.7,110.5z"/>
	</g>
	<g>
		<path class="st0" d="M86.7,103.9H74.9c-1.1,0-2.1-0.9-2.1-2.1c0-1.1,0.9-2.1,2.1-2.1h11.8c1.1,0,2.1,0.9,2.1,2.1
			C88.8,103,87.9,103.9,86.7,103.9z"/>
	</g>
	<g>
		<path class="st0" d="M85.6,97.3h-9.8c-1.1,0-2.1-0.9-2.1-2.1c0-1.1,0.9-2.1,2.1-2.1h9.8c1.1,0,2.1,0.9,2.1,2.1
			C87.7,96.4,86.8,97.3,85.6,97.3z"/>
	</g>
	<g>
		<path class="st0" d="M84.5,90.7H77c-1.1,0-2.1-0.9-2.1-2.1c0-1.1,0.9-2.1,2.1-2.1h7.5c1.1,0,2.1,0.9,2.1,2.1
			C86.6,89.7,85.6,90.7,84.5,90.7z"/>
	</g>
	<g>
		<path class="st0" d="M83,84H77c-1.1,0-2.1-0.9-2.1-2.1s0.9-2.1,2.1-2.1H83c1.1,0,2.1,0.9,2.1,2.1S84.2,84,83,84z"/>
	</g>
	<g>
		<path class="st0" d="M81.2,77.4h-5.4c-1.1,0-2.1-0.9-2.1-2.1c0-1.1,0.9-2.1,2.1-2.1h5.4c1.1,0,2.1,0.9,2.1,2.1
			C83.3,76.5,82.4,77.4,81.2,77.4z"/>
	</g>
	<g>
		<path class="st0" d="M77.1,70.8h-4.6c-1.1,0-2.1-0.9-2.1-2.1c0-1.1,0.9-2.1,2.1-2.1h4.6c1.1,0,2.1,0.9,2.1,2.1
			C79.2,69.9,78.3,70.8,77.1,70.8z"/>
	</g>
	<g>
		<path class="st0" d="M73.8,64.2h-5.9c-1.1,0-2.1-0.9-2.1-2.1c0-1.1,0.9-2.1,2.1-2.1h5.9c1.1,0,2.1,0.9,2.1,2.1
			C75.9,63.2,75,64.2,73.8,64.2z"/>
	</g>
	<g>
		<path class="st0" d="M72.5,57.5h-8c-1.1,0-2.1-0.9-2.1-2.1c0-1.1,0.9-2.1,2.1-2.1h8c1.1,0,2.1,0.9,2.1,2.1
			C74.6,56.6,73.7,57.5,72.5,57.5z"/>
	</g>
	<g>
		<path class="st0" d="M71.2,50.9h-8.1c-1.1,0-2.1-0.9-2.1-2.1s0.9-2.1,2.1-2.1h8.1c1.1,0,2.1,0.9,2.1,2.1S72.4,50.9,71.2,50.9z"/>
	</g>
	<g>
		<path class="st0" d="M69,44.3h-9c-1.1,0-2.1-0.9-2.1-2.1s0.9-2.1,2.1-2.1h9c1.1,0,2.1,0.9,2.1,2.1S70.2,44.3,69,44.3z"/>
	</g>
	<g>
		<path class="st0" d="M68,37.7H58c-1.1,0-2.1-0.9-2.1-2.1c0-1.1,0.9-2.1,2.1-2.1h10c1.1,0,2.1,0.9,2.1,2.1
			C70,36.8,69.1,37.7,68,37.7z"/>
	</g>
	<g>
		<path class="st0" d="M68.6,31.1H58c-1.1,0-2.1-0.9-2.1-2.1c0-1.1,0.9-2.1,2.1-2.1h10.6c1.1,0,2.1,0.9,2.1,2.1
			C70.6,30.1,69.7,31.1,68.6,31.1z"/>
	</g>
	<g>
		<path class="st0" d="M68.6,24.4h-8.5c-1.1,0-2.1-0.9-2.1-2.1s0.9-2.1,2.1-2.1h8.5c1.1,0,2.1,0.9,2.1,2.1S69.7,24.4,68.6,24.4z"/>
	</g>
	<g>
		<path class="st0" d="M71,17.8h-7.9c-1.1,0-2.1-0.9-2.1-2.1s0.9-2.1,2.1-2.1H71c1.1,0,2.1,0.9,2.1,2.1S72.2,17.8,71,17.8z"/>
	</g>
	<g>
		<path class="st0" d="M72.3,11.2h-5.9c-1.1,0-2.1-0.9-2.1-2.1c0-1.1,0.9-2.1,2.1-2.1h5.9c1.1,0,2.1,0.9,2.1,2.1
			C74.4,10.3,73.4,11.2,72.3,11.2z"/>
	</g>
	<g>
		<path class="st0" d="M76,4.6h-3.7c-1.1,0-2.1-0.9-2.1-2.1c0-1.1,0.9-2.1,2.1-2.1H76c1.1,0,2.1,0.9,2.1,2.1
			C78.1,3.7,77.2,4.6,76,4.6z"/>
	</g>
</g>
</svg>
