<?xml version="1.0" encoding="utf-8"?>
<!-- Generator: Adobe Illustrator 16.0.0, SVG Export Plug-In . SVG Version: 6.00 Build 0)  -->
<!DOCTYPE svg PUBLIC "-//W3C//DTD SVG 1.1//EN" "http://www.w3.org/Graphics/SVG/1.1/DTD/svg11.dtd">
<svg version="1.1" id="Layer_1" xmlns="http://www.w3.org/2000/svg" xmlns:xlink="http://www.w3.org/1999/xlink" x="0px" y="0px"
	 width="144px" height="144px" viewBox="0 0 144 144" style="enable-background:new 0 0 144 144;" xml:space="preserve">
<style type="text/css">
<![CDATA[
	.st0{fill:#A3977F;}
]]>
</style>
<path class="st0" d="M139.5,42.9H101V4.4c0-2.2-1.8-4-4-4H47c-2.2,0-4,1.8-4,4v38.5H4.5c-2.2,0-4,1.8-4,4v50c0,2.2,1.8,4,4,4H43
	v38.5c0,2.2,1.8,4,4,4h50c2.2,0,4-1.8,4-4V101h38.5c2.2,0,4-1.8,4-4V47C143.6,44.7,141.8,42.9,139.5,42.9z"/>
</svg>
