<?xml version="1.0" encoding="utf-8"?>
<!-- Generator: Adobe Illustrator 16.0.0, SVG Export Plug-In . SVG Version: 6.00 Build 0)  -->
<!DOCTYPE svg PUBLIC "-//W3C//DTD SVG 1.1//EN" "http://www.w3.org/Graphics/SVG/1.1/DTD/svg11.dtd">
<svg version="1.1" id="Layer_1" xmlns="http://www.w3.org/2000/svg" xmlns:xlink="http://www.w3.org/1999/xlink" x="0px" y="0px"
	 width="144px" height="144px" viewBox="0 0 144 144" style="enable-background:new 0 0 144 144;" xml:space="preserve">
<style type="text/css">
<![CDATA[
	.st0{fill:#A3977F;}
]]>
</style>
<path class="st0" d="M78,106.3c1.2-12.1,7.1-40.5,35.4-52.3c2.6-1.1,5.4,1,5,3.8c-1.8,12.3-8.8,40.8-35.3,52.1
	C80.5,111,77.7,109.1,78,106.3 M69.2,91c1.2,1.4,3.4,1.1,4.1-0.5c13.1-28.8-5-56.3-11.9-65.3c-1.1-1.5-3.5-1.2-4.2,0.4
	C43.2,56.3,62.1,82.7,69.2,91 M71.5,119.9c1.7,0.5,3.4-0.9,3.1-2.6C69.8,85.8,39.3,72.6,28.8,69c-1.7-0.6-3.4,0.8-3.2,2.6
	C30.5,105.1,61,116.9,71.5,119.9 M143.4,71.9c0-39.4-32-71.4-71.4-71.4c-39.4,0-71.4,32-71.4,71.4s32,71.4,71.4,71.4
	C111.4,143.2,143.4,111.2,143.4,71.9z M141.4,71.9c0,38.2-31.1,69.4-69.4,69.4c-38.2,0-69.4-31.1-69.4-69.4
	C2.6,33.6,33.8,2.5,72,2.5C110.2,2.5,141.4,33.6,141.4,71.9z"/>
</svg>
