<?xml version="1.0" encoding="utf-8"?>
<!-- Generator: Adobe Illustrator 16.0.0, SVG Export Plug-In . SVG Version: 6.00 Build 0)  -->
<!DOCTYPE svg PUBLIC "-//W3C//DTD SVG 1.1//EN" "http://www.w3.org/Graphics/SVG/1.1/DTD/svg11.dtd">
<svg version="1.1" id="Layer_1" xmlns="http://www.w3.org/2000/svg" xmlns:xlink="http://www.w3.org/1999/xlink" x="0px" y="0px"
	 width="144px" height="144px" viewBox="0 0 144 144" enable-background="new 0 0 144 144" xml:space="preserve">
<g>
	<defs>
		<rect id="SVGID_1_" x="371" width="144" height="144"/>
	</defs>
	<clipPath id="SVGID_2_">
		<use xlink:href="#SVGID_1_"  overflow="visible"/>
	</clipPath>
	<path clip-path="url(#SVGID_2_)" fill="#A3977F" d="M-173.399,71.79c0,33.979-27.547,61.525-61.525,61.525
		c-33.979,0-61.525-27.546-61.525-61.525s27.546-61.525,61.525-61.525C-200.946,10.265-173.399,37.811-173.399,71.79"/>
	<path clip-path="url(#SVGID_2_)" fill="#FFFFFF" d="M78.222,95.719c0.912-9.086,5.331-30.479,26.622-39.363
		c1.956-0.816,4.063,0.73,3.756,2.827c-1.355,9.254-6.612,30.75-26.579,39.259C80.104,99.258,78.014,97.791,78.222,95.719"/>
	<path clip-path="url(#SVGID_2_)" fill="#FFFFFF" d="M71.588,84.207c-5.364-6.296-19.59-26.134-8.999-49.197
		c0.58-1.262,2.338-1.437,3.187-0.338c5.205,6.742,18.793,27.438,8.936,49.137C74.154,85.037,72.462,85.233,71.588,84.207"/>
	<path clip-path="url(#SVGID_2_)" fill="#FFFFFF" d="M73.326,105.963c-7.884-2.315-30.831-11.166-34.506-36.453
		c-0.19-1.307,1.127-2.357,2.376-1.925c7.935,2.743,30.89,12.652,34.472,36.395C75.863,105.276,74.585,106.333,73.326,105.963"/>
</g>
</svg>
